<svg width="520" height="404" viewBox="0 0 520 404" fill="none" xmlns="http://www.w3.org/2000/svg">
<path d="M353 341H337.5C323.693 341 312.5 329.807 312.5 316V292.5" stroke="black" stroke-width="20"/>
<path d="M465.5 142.5H398.5C384.693 142.5 373.5 153.693 373.5 167.5V203.5C373.5 217.307 384.693 228.5 398.5 228.5H507.5" stroke="black" stroke-width="20"/>
<path d="M457.5 341.5H484.5C498.307 341.5 509.5 330.307 509.5 316.5V215.671C509.5 211.938 508.664 208.252 507.053 204.884L504 198.5L498.5 189.5L490.875 177L470.75 149L449.5 121.875L439.816 112.434C437.95 110.614 435.811 109.098 433.476 107.939L425.751 104.105C422.297 102.392 418.494 101.5 414.638 101.5H334C321.85 101.5 312 111.35 312 123.5V123.5" stroke="black" stroke-width="20"/>
<path d="M228 114C228 176.96 176.96 228 114 228C51.0395 228 0 176.96 0 114C0 51.0395 51.0395 0 114 0C176.96 0 228 51.0395 228 114ZM19.38 114C19.38 166.257 61.7428 208.62 114 208.62C166.257 208.62 208.62 166.257 208.62 114C208.62 61.7428 166.257 19.38 114 19.38C61.7428 19.38 19.38 61.7428 19.38 114Z" fill="black"/>
<path d="M185 342H287C300.807 342 312 330.807 312 317V76.5C312 62.6929 300.807 51.5 287 51.5H198.5" stroke="black" stroke-width="20"/>
<path d="M30.5 175.5V316.5C30.5 330.307 41.6929 341.5 55.5 341.5H80.5" stroke="black" stroke-width="20"/>
<path d="M198 341C198 375.794 169.794 404 135 404C100.206 404 72 375.794 72 341C72 306.206 100.206 278 135 278C169.794 278 198 306.206 198 341ZM93.639 341C93.639 363.843 112.157 382.361 135 382.361C157.843 382.361 176.361 363.843 176.361 341C176.361 318.157 157.843 299.639 135 299.639C112.157 299.639 93.639 318.157 93.639 341Z" fill="black"/>
<path d="M468 340C468 374.794 439.794 403 405 403C370.206 403 342 374.794 342 340C342 305.206 370.206 277 405 277C439.794 277 468 305.206 468 340ZM363.639 340C363.639 362.843 382.157 381.361 405 381.361C427.843 381.361 446.361 362.843 446.361 340C446.361 317.157 427.843 298.639 405 298.639C382.157 298.639 363.639 317.157 363.639 340Z" fill="black"/>
<circle cx="114" cy="112" r="17" fill="black"/>
<path d="M124 39C124 33.4772 119.523 29 114 29C108.477 29 104 33.4772 104 39H124ZM124 107V39H104V107H124Z" fill="black"/>
<path d="M75.4289 136.429C71.5237 140.334 71.5237 146.666 75.4289 150.571C79.3342 154.476 85.6658 154.476 89.5711 150.571L75.4289 136.429ZM106.929 104.929L75.4289 136.429L89.5711 150.571L121.071 119.071L106.929 104.929Z" fill="black"/>
</svg>
