<svg width="287" height="37" viewBox="0 0 287 37" fill="none" xmlns="http://www.w3.org/2000/svg">
<path d="M18.9 36.25C8.5 36.25 0.7 28.7 0.7 18.5C0.7 8.3 8.5 0.749998 18.9 0.749998C23.9 0.749998 28.4 2.4 31.5 5.65L29.65 7.5C26.7 4.55 23.05 3.35 19 3.35C10.2 3.35 3.6 9.85 3.6 18.5C3.6 27.15 10.2 33.65 19 33.65C23.05 33.65 26.7 32.4 29.65 29.45L31.5 31.3C28.4 34.6 23.9 36.25 18.9 36.25ZM54.0574 36.25C43.6074 36.25 35.8074 28.7 35.8074 18.5C35.8074 8.3 43.6074 0.749998 54.0574 0.749998C64.5074 0.749998 72.3074 8.3 72.3074 18.5C72.3074 28.7 64.5074 36.25 54.0574 36.25ZM54.0574 33.65C62.8574 33.65 69.4074 27.2 69.4074 18.5C69.4074 9.8 62.8574 3.35 54.0574 3.35C45.2574 3.35 38.7074 9.8 38.7074 18.5C38.7074 27.2 45.2574 33.65 54.0574 33.65ZM83.852 36H81.002V0.999998H83.852V36ZM98.6957 6.2V36H95.8457V0.999998H98.2457L121.696 30.8V0.999998H124.546V36H122.146L98.6957 6.2ZM157.778 5.1L147.028 36H143.978L132.128 0.999998H135.128L145.628 32.1L156.478 0.999998H159.178L169.928 32.2L180.528 0.999998H183.328L171.478 36H168.428L157.778 5.1ZM190.523 19.5V16.95H214.073V19.5H190.523ZM190.523 3V0.449999H214.073V3H190.523ZM190.523 33.45V36H214.073V33.45H190.523ZM235.671 4.1L221.221 36H218.171L234.271 0.999998H237.121L253.221 36H250.121L235.671 4.1ZM278.12 23.8L286.82 36H283.57L275.32 24.45C274.32 24.55 273.27 24.65 272.12 24.65H262.27V36H259.42V22.15H272.12C279.42 22.15 283.37 18.7 283.37 12.85C283.37 6.95 279.42 3.55 272.12 3.55H259.42V0.999998H272.12C280.92 0.999998 286.27 5.4 286.27 12.85C286.27 18.4 283.27 22.25 278.12 23.8Z" fill="url(#paint0_linear_14_18)"/>
<defs>
<linearGradient id="paint0_linear_14_18" x1="144" y1="36" x2="144" y2="-1" gradientUnits="userSpaceOnUse">
<stop stop-color="#786400"/>
<stop offset="0.492708" stop-color="#B9AE29" stop-opacity="0.85"/>
<stop offset="0.989583" stop-color="#C5C569" stop-opacity="0.97"/>
</linearGradient>
</defs>
</svg>
