<svg width="1146" height="144" viewBox="0 0 1146 144" fill="none" xmlns="http://www.w3.org/2000/svg">
<path d="M73.6 144C32 144 0.8 113.8 0.8 73C0.8 32.2 32 1.99999 73.6 1.99999C93.6 1.99999 111.6 8.59999 124 21.6L116.6 29C104.8 17.2 90.2 12.4 74 12.4C38.8 12.4 12.4 38.4 12.4 73C12.4 107.6 38.8 133.6 74 133.6C90.2 133.6 104.8 128.6 116.6 116.8L124 124.2C111.6 137.4 93.6 144 73.6 144ZM214.23 144C172.43 144 141.23 113.8 141.23 73C141.23 32.2 172.43 1.99999 214.23 1.99999C256.03 1.99999 287.23 32.2 287.23 73C287.23 113.8 256.03 144 214.23 144ZM214.23 133.6C249.43 133.6 275.63 107.8 275.63 73C275.63 38.2 249.43 12.4 214.23 12.4C179.03 12.4 152.83 38.2 152.83 73C152.83 107.8 179.03 133.6 214.23 133.6ZM333.408 143H322.008V2.99999H333.408V143ZM392.783 23.8V143H381.383V2.99999H390.983L484.783 122.2V2.99999H496.183V143H486.583L392.783 23.8ZM629.111 19.4L586.111 143H573.911L526.511 2.99999H538.511L580.511 127.4L623.911 2.99999H634.711L677.711 127.8L720.111 2.99999H731.311L683.911 143H671.711L629.111 19.4ZM760.094 77V66.8H854.294V77H760.094ZM760.094 11V0.799995H854.294V11H760.094ZM760.094 132.8V143H854.294V132.8H760.094ZM940.683 15.4L882.883 143H870.683L935.083 2.99999H946.483L1010.88 143H998.483L940.683 15.4ZM1110.48 94.2L1145.28 143H1132.28L1099.28 96.8C1095.28 97.2 1091.08 97.6 1086.48 97.6H1047.08V143H1035.68V87.6H1086.48C1115.68 87.6 1131.48 73.8 1131.48 50.4C1131.48 26.8 1115.68 13.2 1086.48 13.2H1035.68V2.99999H1086.48C1121.68 2.99999 1143.08 20.6 1143.08 50.4C1143.08 72.6 1131.08 88 1110.48 94.2Z" fill="url(#paint0_linear_21_3)"/>
<defs>
<linearGradient id="paint0_linear_21_3" x1="573" y1="143" x2="573.134" y2="-4.99988" gradientUnits="userSpaceOnUse">
<stop stop-color="#786400"/>
<stop offset="0.492708" stop-color="#B9AE29" stop-opacity="0.85"/>
<stop offset="0.989583" stop-color="#C5C569" stop-opacity="0.97"/>
</linearGradient>
</defs>
</svg>
