<svg width="780" height="58" viewBox="0 0 780 58" fill="none" xmlns="http://www.w3.org/2000/svg">
<path d="M0.42 27.1V22.24H29.88V27.1H0.42ZM0.42 8.74V3.76H29.88V8.74H0.42ZM0.42 41.02V46H29.88V41.02H0.42ZM45.2953 46H39.7753V1.48H45.2953V46ZM58.9359 27.94H79.6359C79.0959 22.42 74.9559 18.64 69.2559 18.64C63.6759 18.64 59.5359 22.42 58.9359 27.94ZM70.3959 46.3C60.2559 46.3 53.4159 39.58 53.4159 30.1C53.4159 20.68 60.1359 13.96 69.2559 13.96C78.3759 13.96 84.9159 20.56 84.9159 30.28C84.9159 30.7 84.8559 31.42 84.8559 31.96H58.9359C59.5959 37.66 64.1559 41.5 70.5759 41.5C74.2959 41.5 77.5359 40.24 79.8159 37.6L82.8759 41.2C79.9959 44.56 75.6159 46.3 70.3959 46.3ZM120.35 14.26L106.43 46H100.73L86.8697 14.26H92.6297L103.67 39.88L114.95 14.26H120.35ZM144.293 36.28V31.78H135.233C129.413 31.78 127.793 34 127.793 36.82C127.793 40.06 130.493 42.04 134.993 42.04C139.313 42.04 142.793 40.06 144.293 36.28ZM134.033 46.3C126.833 46.3 122.333 42.52 122.333 37C122.333 31.96 125.573 27.76 134.993 27.76H144.293V26.5C144.293 21.52 141.413 18.7 135.713 18.7C131.873 18.7 128.033 20.08 125.513 22.18L123.173 18.1C126.473 15.4 131.273 13.96 136.313 13.96C144.893 13.96 149.813 18.16 149.813 26.74V46H144.533V41.74C142.613 44.62 139.073 46.3 134.033 46.3ZM176.136 14.26V18.82H166.896V36.28C166.896 39.76 168.696 41.68 171.996 41.68C173.676 41.68 175.296 41.14 176.436 40.18L178.236 44.14C176.496 45.58 173.916 46.3 171.336 46.3C164.976 46.3 161.376 42.82 161.376 36.52V18.82H155.916V14.26H161.376V7.3H166.896V14.26H176.136ZM186.846 27.94H207.546C207.006 22.42 202.866 18.64 197.166 18.64C191.586 18.64 187.446 22.42 186.846 27.94ZM198.306 46.3C188.166 46.3 181.326 39.58 181.326 30.1C181.326 20.68 188.046 13.96 197.166 13.96C206.286 13.96 212.826 20.56 212.826 30.28C212.826 30.7 212.766 31.42 212.766 31.96H186.846C187.506 37.66 192.066 41.5 198.486 41.5C202.206 41.5 205.446 40.24 207.726 37.6L210.786 41.2C207.906 44.56 203.526 46.3 198.306 46.3ZM253.68 31.42V46H247.98V31.42L231.3 4H237.42L251.04 26.32L264.66 4H270.36L253.68 31.42ZM285.598 46.3C276.118 46.3 269.158 39.58 269.158 30.1C269.158 20.68 276.118 13.96 285.598 13.96C295.078 13.96 302.038 20.68 302.038 30.1C302.038 39.58 295.078 46.3 285.598 46.3ZM285.598 41.5C291.838 41.5 296.458 37 296.458 30.1C296.458 23.26 291.838 18.76 285.598 18.76C279.418 18.76 274.738 23.26 274.738 30.1C274.738 37 279.418 41.5 285.598 41.5ZM323.505 46.3C315.285 46.3 309.825 41.86 309.825 32.56V14.26H315.345V31.96C315.345 38.2 318.585 41.38 324.105 41.38C330.165 41.38 334.065 37.6 334.065 30.7V14.26H339.585V46H334.305V41.08C332.025 44.44 328.065 46.3 323.505 46.3ZM356.252 30.16V46H350.732V14.26H356.012V19.66C358.052 15.94 362.012 13.96 367.592 13.96V19.3C367.112 19.24 366.752 19.24 366.332 19.24C360.092 19.24 356.252 23.08 356.252 30.16ZM406.158 46H400.458V8.98H385.998V4H420.618V8.98H406.158V46ZM431.194 30.16V46H425.674V14.26H430.954V19.66C432.994 15.94 436.954 13.96 442.534 13.96V19.3C442.054 19.24 441.694 19.24 441.274 19.24C435.034 19.24 431.194 23.08 431.194 30.16ZM466.911 36.28V31.78H457.851C452.031 31.78 450.411 34 450.411 36.82C450.411 40.06 453.111 42.04 457.611 42.04C461.931 42.04 465.411 40.06 466.911 36.28ZM456.651 46.3C449.451 46.3 444.951 42.52 444.951 37C444.951 31.96 448.191 27.76 457.611 27.76H466.911V26.5C466.911 21.52 464.031 18.7 458.331 18.7C454.491 18.7 450.651 20.08 448.131 22.18L445.791 18.1C449.091 15.4 453.891 13.96 458.931 13.96C467.511 13.96 472.431 18.16 472.431 26.74V46H467.151V41.74C465.231 44.62 461.691 46.3 456.651 46.3ZM496.946 41.5C503.126 41.5 507.806 37 507.806 30.1C507.806 23.26 503.126 18.76 496.946 18.76C490.766 18.76 486.086 23.26 486.086 30.1C486.086 37 490.766 41.5 496.946 41.5ZM513.266 1.48V46H507.986V40.84C505.346 44.5 501.266 46.3 496.526 46.3C487.286 46.3 480.506 39.82 480.506 30.1C480.506 20.44 487.286 13.96 496.526 13.96C501.026 13.96 505.106 15.7 507.746 19.18V1.48H513.266ZM529.866 46H524.346V14.26H529.866V46ZM527.106 7.96C524.946 7.96 523.326 6.4 523.326 4.36C523.326 2.38 524.946 0.76 527.106 0.76C529.266 0.76 530.886 2.26 530.886 4.24C530.886 6.34 529.266 7.96 527.106 7.96ZM557.786 13.96C565.466 13.96 570.986 18.4 570.986 27.7V46H565.466V28.3C565.466 22.06 562.226 18.88 556.706 18.88C550.466 18.88 546.506 22.66 546.506 29.56V46H540.986V14.26H546.266V19.18C548.606 15.82 552.686 13.96 557.786 13.96ZM595.74 39.88C602.22 39.88 606.84 35.56 606.84 29.26C606.84 23.02 602.22 18.76 595.74 18.76C589.26 18.76 584.64 23.02 584.64 29.26C584.64 35.56 589.26 39.88 595.74 39.88ZM595.14 44.68C585.96 44.68 579.06 38.44 579.06 29.26C579.06 20.14 585.96 13.96 595.14 13.96C599.94 13.96 604.26 15.7 606.96 19.3V14.26H612.24V41.74C612.24 52.9 606.6 57.94 595.86 57.94C590.04 57.94 584.22 56.32 580.74 53.26L583.44 49C586.38 51.52 591 53.14 595.68 53.14C603.24 53.14 606.72 49.6 606.72 42.34V39.64C604.02 43 599.82 44.68 595.14 44.68ZM652.442 46.48C646.022 46.48 639.722 44.32 636.422 41.14L638.582 36.7C641.702 39.52 647.042 41.56 652.442 41.56C659.762 41.56 662.942 38.68 662.942 34.96C662.942 24.46 637.442 31.06 637.442 15.46C637.442 9.04 642.422 3.52 653.462 3.52C658.322 3.52 663.362 4.9 666.842 7.3L664.982 11.86C661.322 9.52 657.122 8.44 653.402 8.44C646.202 8.44 643.082 11.5 643.082 15.28C643.082 25.72 668.582 19.18 668.582 34.6C668.582 40.96 663.422 46.48 652.442 46.48ZM692.229 14.26V18.82H682.989V36.28C682.989 39.76 684.789 41.68 688.089 41.68C689.769 41.68 691.389 41.14 692.529 40.18L694.329 44.14C692.589 45.58 690.009 46.3 687.429 46.3C681.069 46.3 677.469 42.82 677.469 36.52V18.82H672.009V14.26H677.469V7.3H682.989V14.26H692.229ZM701.009 14.26L712.169 39.88L723.329 14.26H728.729L713.249 49.3C710.489 55.96 706.829 57.94 702.029 57.94C699.029 57.94 695.969 56.98 693.989 55.06L696.389 50.92C697.889 52.42 699.869 53.26 702.029 53.26C704.789 53.26 706.589 52 708.209 48.34L709.289 46L695.249 14.26H701.009ZM739.748 46H734.228V1.48H739.748V46ZM753.389 27.94H774.089C773.549 22.42 769.409 18.64 763.709 18.64C758.129 18.64 753.989 22.42 753.389 27.94ZM764.849 46.3C754.709 46.3 747.869 39.58 747.869 30.1C747.869 20.68 754.589 13.96 763.709 13.96C772.829 13.96 779.369 20.56 779.369 30.28C779.369 30.7 779.309 31.42 779.309 31.96H753.389C754.049 37.66 758.609 41.5 765.029 41.5C768.749 41.5 771.989 40.24 774.269 37.6L777.329 41.2C774.449 44.56 770.069 46.3 764.849 46.3Z" fill="url(#paint0_linear_21_2)"/>
<defs>
<linearGradient id="paint0_linear_21_2" x1="388" y1="2" x2="388" y2="58" gradientUnits="userSpaceOnUse">
<stop stop-color="#D5FFD5"/>
<stop offset="1" stop-color="#04C400"/>
</linearGradient>
</defs>
</svg>
