<svg width="208" height="156" viewBox="0 0 208 156" fill="none" xmlns="http://www.w3.org/2000/svg">
<path d="M51.5 31.2453L80.4706 103.079C82.3012 107.619 86.7051 110.591 91.5996 110.591H167.448C172.318 110.591 176.706 107.647 178.552 103.14L201.222 47.7937C204.456 39.8984 198.649 31.2453 190.117 31.2453H51.5ZM51.5 31.2453L41.3061 10.6722C39.2811 6.5855 35.1145 4 30.5536 4H4.5" stroke="url(#paint0_linear_25_10)" stroke-width="8" stroke-linecap="round"/>
<ellipse cx="17.5" cy="16.7296" rx="17.5" ry="16.7296" transform="matrix(-1 0 0 1 124 122.541)" fill="url(#paint1_linear_25_10)"/>
<ellipse cx="17.5" cy="16.7296" rx="17.5" ry="16.7296" transform="matrix(-1 0 0 1 169 122)" fill="url(#paint2_linear_25_10)"/>
<defs>
<linearGradient id="paint0_linear_25_10" x1="106" y1="111" x2="106" y2="4" gradientUnits="userSpaceOnUse">
<stop stop-color="#786400"/>
<stop offset="0.492708" stop-color="#B9AE29" stop-opacity="0.85"/>
<stop offset="1" stop-color="#C5C569" stop-opacity="0.97"/>
</linearGradient>
<linearGradient id="paint1_linear_25_10" x1="-5.65691e-07" y1="33.4592" x2="35" y2="0.459228" gradientUnits="userSpaceOnUse">
<stop stop-color="#786400"/>
<stop offset="0.503125" stop-color="#B9AE29" stop-opacity="0.85"/>
<stop offset="1" stop-color="#C5C569" stop-opacity="0.97"/>
</linearGradient>
<linearGradient id="paint2_linear_25_10" x1="-5.65691e-07" y1="33.4592" x2="35" y2="0.459228" gradientUnits="userSpaceOnUse">
<stop stop-color="#786400"/>
<stop offset="0.503125" stop-color="#B9AE29" stop-opacity="0.85"/>
<stop offset="1" stop-color="#C5C569" stop-opacity="0.97"/>
</linearGradient>
</defs>
</svg>
